<?xml version="1.0" standalone="no"?>
<!DOCTYPE svg PUBLIC "-//W3C//DTD SVG 20010904//EN"
 "http://www.w3.org/TR/2001/REC-SVG-20010904/DTD/svg10.dtd">
<svg version="1.0" xmlns="http://www.w3.org/2000/svg"
 width="256.000000pt" height="256.000000pt" viewBox="0 0 256.000000 256.000000"
 preserveAspectRatio="xMidYMid meet">

<g transform="translate(0.000000,256.000000) scale(0.100000,-0.100000)"
fill="#000000" stroke="none">
<path d="M120 2195 l0 -165 45 0 45 0 0 165 0 165 -45 0 -45 0 0 -165z"/>
<path d="M260 2284 l-42 -75 37 -90 38 -89 48 0 47 0 -41 90 c-45 99 -45 89
13 188 l30 52 -44 0 -45 0 -41 -76z"/>
<path d="M468 2344 c-15 -8 -32 -23 -38 -34 -13 -24 -13 -191 0 -225 12 -32
64 -55 125 -55 l45 0 0 45 0 45 -45 0 c-38 0 -45 3 -45 20 0 17 7 20 40 20 39
0 40 1 40 35 0 34 -1 35 -41 35 -33 0 -40 3 -37 18 2 12 15 18 46 20 l42 3 0
45 0 44 -52 0 c-29 -1 -65 -7 -80 -16z"/>
<path d="M634 2333 c8 -16 29 -48 45 -73 29 -42 31 -51 31 -137 l0 -93 45 0
45 0 0 95 c0 94 1 96 40 159 22 35 40 66 40 70 0 3 -18 6 -39 6 -34 0 -42 -5
-61 -35 -12 -19 -25 -35 -29 -35 -4 0 -16 16 -27 35 -17 32 -23 35 -62 35
l-43 0 15 -27z"/>
<path d="M912 2215 c3 -129 5 -147 23 -165 34 -34 77 -36 113 -5 l31 26 20
-20 c32 -32 68 -37 99 -14 45 33 52 58 52 196 l0 127 -45 0 -44 0 -3 -122 c-3
-101 -6 -123 -18 -123 -12 0 -15 22 -18 123 l-3 122 -44 0 -45 0 0 -125 c0
-104 -2 -125 -15 -125 -13 0 -15 21 -15 125 l0 125 -46 0 -45 0 3 -145z"/>
<path d="M1415 2349 c-65 -20 -115 -89 -115 -159 0 -139 164 -217 267 -127 44
39 63 76 63 127 0 70 -53 141 -121 160 -40 12 -53 11 -94 -1z m102 -101 c30
-28 31 -83 1 -115 -46 -49 -128 -14 -128 56 0 71 76 107 127 59z"/>
<path d="M1690 2196 l0 -166 45 0 45 0 0 121 0 120 27 -3 c35 -4 45 -37 14
-45 -29 -7 -28 -71 1 -140 l23 -53 47 0 47 0 -28 67 -29 67 21 28 c35 47 23
117 -26 148 -12 7 -59 16 -104 18 l-83 5 0 -167z"/>
<path d="M1980 2196 l0 -166 45 0 45 0 0 120 0 120 38 0 c53 0 82 -23 82 -66
0 -43 -29 -74 -70 -74 -29 0 -30 -1 -30 -51 l0 -52 41 7 c93 15 141 65 147
155 3 46 0 62 -20 90 -38 56 -77 73 -184 79 l-94 5 0 -167z"/>
<path d="M2403 2345 c-57 -24 -77 -92 -48 -162 22 -53 20 -73 -10 -73 -22 0
-25 -4 -25 -39 0 -33 4 -40 25 -45 32 -8 88 15 109 45 20 29 20 95 1 129 -20
35 -18 61 5 67 16 4 20 14 20 49 0 39 -3 44 -22 44 -13 -1 -37 -7 -55 -15z"/>
<path d="M589 1761 c-132 -42 -162 -223 -50 -296 73 -47 153 -41 208 17 26 29
53 83 53 109 0 5 -20 9 -44 9 -38 0 -46 -4 -52 -22 -11 -39 -35 -58 -71 -58
-46 0 -73 29 -73 80 0 51 27 80 74 80 25 0 40 -7 54 -25 15 -19 29 -25 60 -25
23 0 43 4 46 8 9 15 -39 86 -69 103 -37 22 -101 31 -136 20z"/>
<path d="M852 1635 c3 -129 4 -136 29 -160 14 -14 42 -28 62 -32 l37 -6 0 46
c0 37 -4 47 -20 52 -18 6 -20 15 -20 121 l0 114 -46 0 -46 0 4 -135z"/>
<path d="M1125 1759 c-65 -20 -115 -89 -115 -159 0 -139 164 -217 267 -127 44
39 63 76 63 127 0 70 -53 141 -121 160 -40 12 -53 11 -94 -1z m102 -101 c30
-28 31 -83 1 -115 -46 -49 -128 -14 -128 56 0 71 76 107 127 59z"/>
<path d="M1390 1648 c0 -150 13 -185 76 -207 37 -13 44 -12 80 5 61 30 74 67
74 207 l0 117 -45 0 -44 0 -3 -122 c-3 -115 -4 -123 -23 -123 -19 0 -20 8 -23
123 l-3 122 -44 0 -45 0 0 -122z"/>
<path d="M1690 1606 l0 -166 45 0 45 0 0 120 0 120 38 0 c53 0 82 -23 82 -66
0 -43 -29 -74 -70 -74 -29 0 -30 -1 -30 -51 l0 -52 41 7 c93 15 141 65 147
155 3 46 0 62 -20 90 -38 56 -77 73 -184 79 l-94 5 0 -167z"/>
<path d="M750 999 c0 -5 5 -7 10 -4 6 3 10 8 10 11 0 2 -4 4 -10 4 -5 0 -10
-5 -10 -11z"/>
<path d="M1545 643 c41 -101 41 -104 20 -120 -20 -15 -20 -15 0 -11 14 2 27
23 46 76 15 39 23 72 18 72 -4 0 -14 -18 -20 -40 -7 -22 -15 -40 -19 -40 -4 0
-12 18 -19 40 -6 22 -17 40 -22 40 -7 0 -8 -7 -4 -17z"/>
<path d="M1666 644 c-32 -32 -10 -94 34 -94 26 0 50 27 50 55 0 28 -24 55 -50
55 -10 0 -26 -7 -34 -16z m48 0 c22 -8 22 -70 0 -78 -35 -13 -60 44 -32 72 14
14 12 14 32 6z"/>
<path d="M1784 610 l1 -55 38 0 37 -1 -1 56 -2 55 -6 -43 c-4 -23 -13 -48 -19
-54 -18 -18 -40 8 -45 55 -3 31 -4 27 -3 -13z"/>
<path d="M2129 408 c-3 -80 -4 -83 -24 -83 -26 0 -32 37 -10 59 9 9 13 16 8
16 -16 0 -33 -24 -33 -46 0 -27 19 -44 48 -41 20 1 22 7 22 59 0 32 -2 58 -5
58 -3 0 -5 -10 -6 -22z"/>
<path d="M1495 384 c-20 -20 -16 -53 8 -68 39 -24 79 44 41 71 -23 17 -29 16
-49 -3z m48 -16 c14 -21 2 -48 -22 -48 -24 0 -37 36 -20 56 14 17 28 14 42 -8z"/>
<path d="M1582 350 c1 -40 2 -41 5 -10 2 19 11 40 20 47 13 10 13 12 -6 10
-18 -1 -21 -7 -19 -47z"/>
<path d="M1700 338 c0 -37 4 -58 11 -58 8 0 10 13 6 38 -8 60 20 95 43 53 12
-24 4 -48 -18 -54 -15 -4 -15 -5 0 -6 22 -1 41 34 33 59 -7 22 -7 22 -47 24
-28 2 -28 1 -28 -56z"/>
<path d="M1813 393 c-8 -3 -12 -21 -11 -46 1 -41 1 -41 5 -7 2 19 11 41 20 48
17 12 9 15 -14 5z"/>
<path d="M1865 384 c-20 -20 -16 -53 8 -68 39 -24 79 44 41 71 -23 17 -29 16
-49 -3z m45 -9 c18 -22 3 -57 -23 -53 -25 3 -34 32 -17 53 16 19 24 19 40 0z"/>
<path d="M1951 390 c0 -8 4 -22 9 -30 12 -18 12 -2 0 25 -6 13 -9 15 -9 5z"/>
<path d="M2000 366 c-6 -20 -16 -34 -21 -31 -5 4 -9 -1 -9 -9 0 -29 18 -16 34
25 9 23 15 43 12 46 -2 2 -9 -12 -16 -31z"/>
<path d="M2043 355 c0 -27 2 -38 4 -22 2 15 2 37 0 50 -2 12 -4 0 -4 -28z"/>
<path d="M2184 392 c-18 -12 -24 -42 -14 -63 11 -20 54 -26 65 -10 3 6 -7 9
-21 8 -15 -1 -29 4 -31 11 -3 8 6 12 26 12 32 0 41 16 19 38 -14 14 -28 15
-44 4z m44 -19 c2 -8 -6 -13 -22 -13 -25 0 -33 10 -19 24 10 10 36 3 41 -11z"/>
<path d="M2272 388 c-18 -18 -15 -25 19 -37 37 -13 29 -36 -10 -26 -19 5 -23
4 -15 -5 16 -16 59 -9 59 10 0 8 -13 21 -28 28 -20 10 -26 17 -18 25 7 7 15 6
27 -4 15 -12 17 -12 12 1 -6 20 -30 24 -46 8z"/>
<path d="M1110 365 c-16 -19 -5 -61 17 -69 10 -4 23 0 32 11 15 16 15 16 -2 3
-15 -11 -20 -11 -34 2 -23 24 -8 61 23 55 13 -2 21 0 18 4 -8 14 -40 10 -54
-6z"/>
<path d="M1196 372 c-3 -4 8 -6 24 -4 25 4 29 1 28 -19 -1 -13 -6 -30 -11 -36
-7 -9 -4 -13 7 -13 14 0 17 8 14 38 -3 32 -7 37 -30 40 -14 2 -29 -1 -32 -6z"/>
<path d="M1292 338 c1 -38 2 -39 5 -10 5 36 30 53 44 31 7 -11 9 -11 9 4 0 12
-8 17 -30 17 -29 0 -30 -2 -28 -42z"/>
<path d="M1197 333 c-12 -12 -7 -31 9 -37 14 -6 15 -4 4 10 -12 13 -11 17 1
25 8 5 9 9 3 9 -6 0 -14 -3 -17 -7z"/>
<path d="M821 194 c0 -11 3 -14 6 -6 3 7 2 16 -1 19 -3 4 -6 -2 -5 -13z"/>
</g>
</svg>
